<mxfile host="app.diagrams.net" modified="2024-04-14T17:46:58.497Z" agent="Mozilla/5.0 (Windows NT 10.0; Win64; x64) AppleWebKit/537.36 (KHTML, like Gecko) Chrome/123.0.0.0 Safari/537.36" etag="rHXXZZOsxlw8LcfsMBil" version="24.2.5" type="device">
  <diagram name="Página-1" id="8lnDkiwcCcwIVzjZ2nCf">
    <mxGraphModel dx="1388" dy="790" grid="1" gridSize="10" guides="1" tooltips="1" connect="1" arrows="1" fold="1" page="1" pageScale="1" pageWidth="1169" pageHeight="1654" math="0" shadow="0">
      <root>
        <mxCell id="0" />
        <mxCell id="1" parent="0" />
        <mxCell id="wvbpX4q7yK6OlmTKSm8S-1" value=":Agencia" style="shape=umlLifeline;perimeter=lifelinePerimeter;whiteSpace=wrap;html=1;container=1;dropTarget=0;collapsible=0;recursiveResize=0;outlineConnect=0;portConstraint=eastwest;newEdgeStyle={&quot;curved&quot;:0,&quot;rounded&quot;:0};" vertex="1" parent="1">
          <mxGeometry x="200" y="180" width="100" height="380" as="geometry" />
        </mxCell>
        <mxCell id="wvbpX4q7yK6OlmTKSm8S-4" value="" style="html=1;points=[[0,0,0,0,5],[0,1,0,0,-5],[1,0,0,0,5],[1,1,0,0,-5]];perimeter=orthogonalPerimeter;outlineConnect=0;targetShapes=umlLifeline;portConstraint=eastwest;newEdgeStyle={&quot;curved&quot;:0,&quot;rounded&quot;:0};" vertex="1" parent="wvbpX4q7yK6OlmTKSm8S-1">
          <mxGeometry x="45" y="90" width="10" height="260" as="geometry" />
        </mxCell>
        <mxCell id="wvbpX4q7yK6OlmTKSm8S-5" value="CU2; asignarTipo()" style="html=1;verticalAlign=bottom;startArrow=oval;endArrow=block;startSize=8;curved=0;rounded=0;entryX=0;entryY=0;entryDx=0;entryDy=5;" edge="1" target="wvbpX4q7yK6OlmTKSm8S-4" parent="wvbpX4q7yK6OlmTKSm8S-1">
          <mxGeometry relative="1" as="geometry">
            <mxPoint x="-110" y="95" as="sourcePoint" />
          </mxGeometry>
        </mxCell>
        <mxCell id="wvbpX4q7yK6OlmTKSm8S-2" value=":Sistema" style="shape=umlLifeline;perimeter=lifelinePerimeter;whiteSpace=wrap;html=1;container=1;dropTarget=0;collapsible=0;recursiveResize=0;outlineConnect=0;portConstraint=eastwest;newEdgeStyle={&quot;curved&quot;:0,&quot;rounded&quot;:0};" vertex="1" parent="1">
          <mxGeometry x="510" y="180" width="100" height="380" as="geometry" />
        </mxCell>
        <mxCell id="wvbpX4q7yK6OlmTKSm8S-8" value="" style="html=1;points=[[0,0,0,0,5],[0,1,0,0,-5],[1,0,0,0,5],[1,1,0,0,-5]];perimeter=orthogonalPerimeter;outlineConnect=0;targetShapes=umlLifeline;portConstraint=eastwest;newEdgeStyle={&quot;curved&quot;:0,&quot;rounded&quot;:0};" vertex="1" parent="wvbpX4q7yK6OlmTKSm8S-2">
          <mxGeometry x="45" y="90" width="10" height="140" as="geometry" />
        </mxCell>
        <mxCell id="wvbpX4q7yK6OlmTKSm8S-3" value=":Avión" style="shape=umlLifeline;perimeter=lifelinePerimeter;whiteSpace=wrap;html=1;container=1;dropTarget=0;collapsible=0;recursiveResize=0;outlineConnect=0;portConstraint=eastwest;newEdgeStyle={&quot;curved&quot;:0,&quot;rounded&quot;:0};" vertex="1" parent="1">
          <mxGeometry x="790" y="180" width="100" height="380" as="geometry" />
        </mxCell>
        <mxCell id="wvbpX4q7yK6OlmTKSm8S-9" value="" style="html=1;points=[[0,0,0,0,5],[0,1,0,0,-5],[1,0,0,0,5],[1,1,0,0,-5]];perimeter=orthogonalPerimeter;outlineConnect=0;targetShapes=umlLifeline;portConstraint=eastwest;newEdgeStyle={&quot;curved&quot;:0,&quot;rounded&quot;:0};" vertex="1" parent="wvbpX4q7yK6OlmTKSm8S-3">
          <mxGeometry x="45" y="90" width="10" height="270" as="geometry" />
        </mxCell>
        <mxCell id="wvbpX4q7yK6OlmTKSm8S-6" value="1: seleccionar la opcion asignar tipo avion" style="html=1;verticalAlign=bottom;endArrow=block;curved=0;rounded=0;" edge="1" parent="1" target="wvbpX4q7yK6OlmTKSm8S-2">
          <mxGeometry width="80" relative="1" as="geometry">
            <mxPoint x="250" y="290" as="sourcePoint" />
            <mxPoint x="330" y="290" as="targetPoint" />
          </mxGeometry>
        </mxCell>
        <mxCell id="wvbpX4q7yK6OlmTKSm8S-7" value="2: asignarTipo()" style="html=1;verticalAlign=bottom;endArrow=block;curved=0;rounded=0;" edge="1" parent="1" target="wvbpX4q7yK6OlmTKSm8S-3">
          <mxGeometry width="80" relative="1" as="geometry">
            <mxPoint x="560" y="310" as="sourcePoint" />
            <mxPoint x="640" y="310" as="targetPoint" />
          </mxGeometry>
        </mxCell>
        <mxCell id="wvbpX4q7yK6OlmTKSm8S-11" value="3: solicita el tipo de avión para el vuelo" style="html=1;verticalAlign=bottom;endArrow=open;dashed=1;endSize=8;curved=0;rounded=0;" edge="1" parent="1">
          <mxGeometry x="0.2871" relative="1" as="geometry">
            <mxPoint x="839.5" y="338" as="sourcePoint" />
            <mxPoint x="249.81034482758605" y="338" as="targetPoint" />
            <mxPoint as="offset" />
          </mxGeometry>
        </mxCell>
        <mxCell id="wvbpX4q7yK6OlmTKSm8S-12" value="alt:" style="shape=umlFrame;whiteSpace=wrap;html=1;pointerEvents=0;" vertex="1" parent="1">
          <mxGeometry x="150" y="360" width="770" height="140" as="geometry" />
        </mxCell>
        <mxCell id="wvbpX4q7yK6OlmTKSm8S-13" value="4: introduce el tipo de avión&amp;nbsp;" style="html=1;verticalAlign=bottom;endArrow=block;curved=0;rounded=0;" edge="1" parent="1" target="wvbpX4q7yK6OlmTKSm8S-2">
          <mxGeometry width="80" relative="1" as="geometry">
            <mxPoint x="250" y="390" as="sourcePoint" />
            <mxPoint x="330" y="390" as="targetPoint" />
          </mxGeometry>
        </mxCell>
        <mxCell id="wvbpX4q7yK6OlmTKSm8S-14" value="5: comprueba la disponibilidad" style="html=1;verticalAlign=bottom;endArrow=block;curved=0;rounded=0;" edge="1" parent="1" target="wvbpX4q7yK6OlmTKSm8S-9">
          <mxGeometry width="80" relative="1" as="geometry">
            <mxPoint x="560" y="400" as="sourcePoint" />
            <mxPoint x="640" y="400" as="targetPoint" />
          </mxGeometry>
        </mxCell>
        <mxCell id="wvbpX4q7yK6OlmTKSm8S-15" value="6: mensaje de error(&quot;Avión no valido&quot;)" style="html=1;verticalAlign=bottom;endArrow=open;dashed=1;endSize=8;curved=0;rounded=0;" edge="1" parent="1" target="wvbpX4q7yK6OlmTKSm8S-4">
          <mxGeometry relative="1" as="geometry">
            <mxPoint x="840" y="440" as="sourcePoint" />
            <mxPoint x="760" y="440" as="targetPoint" />
          </mxGeometry>
        </mxCell>
        <mxCell id="wvbpX4q7yK6OlmTKSm8S-16" value="6: mensaje de confirmación" style="html=1;verticalAlign=bottom;endArrow=open;dashed=1;endSize=8;curved=0;rounded=0;entryX=1;entryY=1;entryDx=0;entryDy=-5;entryPerimeter=0;" edge="1" parent="1">
          <mxGeometry x="0.1275" relative="1" as="geometry">
            <mxPoint x="839.5" y="525" as="sourcePoint" />
            <mxPoint x="255" y="525" as="targetPoint" />
            <mxPoint as="offset" />
          </mxGeometry>
        </mxCell>
      </root>
    </mxGraphModel>
  </diagram>
</mxfile>
